<svg width="80px" height="80px" viewBox="0 0 80 80" version="1.1" xmlns="http://www.w3.org/2000/svg">
    <g stroke="none" stroke-width="1" fill="none" fill-rule="evenodd">
        <rect fill="#1E88E5" x="0" y="0" width="80" height="80" rx="16"></rect>
        <path d="M40 20C28.9543 20 20 28.9543 20 40C20 51.0457 28.9543 60 40 60C51.0457 60 60 51.0457 60 40C60 28.9543 51.0457 20 40 20ZM40 26C47.732 26 54 32.268 54 40C54 47.732 47.732 54 40 54C32.268 54 26 47.732 26 40C26 32.268 32.268 26 40 26ZM40 33C36.134 33 33 36.134 33 40C33 43.866 36.134 47 40 47C43.866 47 47 43.866 47 40C47 36.134 43.866 33 40 33Z" fill="#FFFFFF"></path>
    </g>
</svg>
